<?xml version="1.0" standalone="no"?>
<!DOCTYPE svg PUBLIC "-//W3C//DTD SVG 20010904//EN"
 "http://www.w3.org/TR/2001/REC-SVG-20010904/DTD/svg10.dtd">
<svg version="1.0" xmlns="http://www.w3.org/2000/svg"
 width="680.000000pt" height="680.000000pt" viewBox="0 0 680.000000 680.000000"
 preserveAspectRatio="xMidYMid meet">
<metadata>
Created by potrace 1.14, written by Peter Selinger 2001-2017
</metadata>
<g transform="translate(0.000000,680.000000) scale(0.100000,-0.100000)"
fill="#000000" stroke="none">
<path d="M2430 6020 l0 -640 270 0 270 0 0 640 0 640 -270 0 -270 0 0 -640z"/>
<path d="M1132 6459 c-461 -41 -872 -365 -1021 -804 -65 -192 -62 -91 -59
-2036 l3 -1764 27 -98 c127 -461 477 -788 946 -885 68 -14 252 -16 1567 -19
820 -3 1537 -1 1594 2 l104 7 -464 464 -464 464 -1076 0 c-1222 0 -1145 -5
-1229 80 -87 86 -80 -61 -80 1790 0 1851 -7 1704 80 1790 80 81 75 80 657 80
l503 0 0 470 0 470 -497 -1 c-274 -1 -540 -5 -591 -10z"/>
<path d="M3188 6464 c-5 -4 -8 -216 -8 -471 l0 -463 503 0 c562 0 569 -1 646
-67 24 -20 54 -60 67 -87 l24 -51 0 -1245 0 -1245 463 -463 464 -464 6 69 c12
119 8 3290 -4 3404 -54 536 -443 961 -974 1066 -65 12 -184 16 -630 20 -302 3
-553 1 -557 -3z"/>
<path d="M1310 4855 l0 -405 125 0 125 0 0 405 0 405 -125 0 -125 0 0 -405z"/>
<path d="M1690 4855 l0 -405 494 0 495 0 -331 -412 c-182 -227 -490 -611 -684
-854 l-354 -441 0 -352 0 -351 1153 0 1152 0 263 263 262 262 0 128 0 127
-115 0 -115 0 0 -175 0 -175 -88 0 c-49 0 -171 3 -271 7 l-182 6 2 171 1 171
-49 7 c-26 3 -174 7 -329 7 -154 1 -321 4 -370 7 l-89 7 3 200 c4 188 5 203
25 228 12 15 190 228 396 474 l375 448 211 -6 212 -6 137 169 136 169 0 365 0
366 -1170 0 -1170 0 0 -405z"/>
<path d="M1330 4150 l0 -130 220 -2 219 -3 -224 -268 -225 -268 0 -190 0 -189
33 37 c18 21 125 148 238 283 113 135 321 383 462 553 l258 307 -491 0 -490 0
0 -130z"/>
<path d="M4080 2125 l-334 -334 824 -830 823 -831 681 0 681 0 -225 226 c-124
124 -651 648 -1171 1164 l-945 939 -334 -334z"/>
<path d="M3141 719 c-17 -16 -22 -29 -18 -53 2 -17 -1 -38 -7 -48 -16 -26 -5
-28 57 -10 39 12 57 22 57 33 0 13 -8 17 -32 15 -28 -1 -34 3 -36 23 -3 21 0
23 22 19 15 -3 31 0 37 8 30 36 -43 47 -80 13z"/>
<path d="M2090 581 c-25 -7 -25 -7 -28 -144 -2 -129 -4 -137 -22 -137 -16 0
-20 -7 -20 -30 l0 -30 525 0 525 0 0 108 c0 60 -3 111 -6 115 -3 3 -19 1 -35
-5 -29 -10 -29 -11 -29 -84 l0 -74 -85 0 -85 0 0 80 c0 72 -2 80 -19 80 -46 0
-51 -9 -51 -86 l0 -74 -30 0 -30 0 0 80 c0 72 -2 80 -19 80 -46 0 -51 -9 -51
-86 l0 -74 -30 0 -29 0 -3 83 -3 83 -32 -8 -33 -9 0 -74 0 -75 -55 0 c-52 0
-55 1 -55 25 0 36 -30 104 -51 115 -47 26 -125 3 -186 -53 l-23 -20 0 111 c0
62 -3 112 -7 111 -5 -1 -19 -4 -33 -8z m214 -207 c9 -8 16 -29 16 -45 l0 -29
-97 0 -96 0 24 26 c55 60 121 81 153 48z"/>
<path d="M3160 581 l-25 -7 -3 -167 -2 -167 175 0 175 0 0 45 c0 56 -20 97
-73 152 -22 24 -39 44 -36 45 2 2 31 12 63 23 51 17 61 24 68 49 4 17 6 31 5
32 -1 1 -45 -12 -97 -30 l-95 -33 -3 -44 c-2 -41 0 -46 33 -67 35 -22 75 -75
75 -99 0 -10 -29 -13 -110 -13 l-110 0 0 145 c0 80 -3 145 -7 144 -5 -1 -19
-4 -33 -8z"/>
<path d="M2954 176 c-12 -31 0 -51 31 -51 27 0 30 3 30 30 0 25 -4 30 -28 33
-17 2 -29 -2 -33 -12z"/>
</g>
</svg>
