<?xml version="1.0" standalone="no"?>
<!DOCTYPE svg PUBLIC "-//W3C//DTD SVG 20010904//EN"
 "http://www.w3.org/TR/2001/REC-SVG-20010904/DTD/svg10.dtd">
<svg version="1.0" xmlns="http://www.w3.org/2000/svg"
 width="1084.000000pt" height="1084.000000pt" viewBox="0 0 1084.000000 1084.000000"
 preserveAspectRatio="xMidYMid meet">
<metadata>
Created by potrace 1.14, written by Peter Selinger 2001-2017
</metadata>
<g transform="translate(0.000000,1084.000000) scale(0.100000,-0.100000)"
fill="#000000" stroke="none">
<path d="M100 10780 c-2 -853 1 -9694 3 -9696 2 -2 32 31 68 74 35 42 74 88
85 102 22 25 63 74 139 165 49 58 64 77 90 107 11 12 42 50 69 83 28 33 55 65
61 71 6 6 27 30 46 54 18 23 41 51 51 61 9 11 31 38 50 61 18 23 38 46 43 52
6 6 33 38 61 71 67 81 87 105 99 119 6 6 33 38 60 71 28 33 52 62 55 65 5 5
92 109 125 149 11 14 29 34 40 46 11 12 32 37 46 56 15 19 39 48 54 64 14 17
38 45 53 64 15 19 36 44 47 56 11 12 27 30 35 41 8 10 34 42 58 70 l42 50 2
3255 3 3254 2730 0 2730 0 20 22 c20 22 79 90 112 130 33 40 88 105 103 123 8
10 33 39 55 66 80 96 118 139 126 142 5 2 9 10 9 17 0 7 3 15 8 17 4 2 34 35
67 73 33 39 63 72 68 73 4 2 7 8 7 12 0 5 13 24 29 42 25 28 142 165 315 372
23 27 46 54 51 60 6 6 30 36 54 66 24 30 53 64 63 75 10 11 28 31 39 45 67 80
95 114 107 126 7 8 12 15 10 15 -2 1 -1845 2 -4095 3 l-4093 1 0 -45z"/>
<path d="M8613 10747 c-28 -34 -61 -73 -73 -87 -40 -46 -55 -65 -109 -130 -30
-36 -57 -67 -60 -70 -3 -3 -22 -25 -42 -50 -20 -25 -45 -55 -55 -67 -11 -12
-26 -30 -34 -40 -21 -26 -111 -133 -137 -163 -31 -36 -54 -63 -90 -107 -17
-21 -39 -48 -50 -59 -10 -12 -36 -43 -58 -70 -50 -60 -108 -129 -143 -170 -15
-17 -34 -40 -42 -50 -16 -20 -218 -261 -235 -280 -5 -6 -28 -33 -50 -59 -22
-27 -44 -53 -50 -59 -33 -37 -164 -195 -178 -216 -15 -22 -17 -76 -17 -605 l0
-580 -282 1 c-156 1 -290 2 -298 3 -13 1 -15 56 -14 431 l0 430 -1773 0 -1773
0 0 -439 c0 -342 3 -440 12 -443 7 -2 469 -3 1026 -3 556 1 1012 -1 1012 -3 0
-6 -200 -249 -245 -298 -5 -6 -26 -31 -45 -55 -19 -24 -50 -59 -67 -78 -18
-19 -33 -37 -33 -40 0 -3 -17 -25 -38 -47 -20 -23 -53 -61 -73 -85 -37 -44
-186 -222 -263 -313 -60 -72 -114 -136 -144 -174 -27 -32 -42 -50 -92 -108
-14 -16 -46 -54 -71 -84 -24 -30 -53 -66 -64 -78 -11 -13 -28 -33 -38 -45 -10
-12 -33 -38 -51 -57 -17 -19 -65 -75 -106 -125 -41 -49 -79 -95 -85 -101 -5
-6 -28 -32 -50 -59 -34 -41 -138 -165 -170 -202 -5 -6 -20 -24 -32 -40 -12
-16 -35 -43 -50 -59 -15 -16 -43 -48 -61 -71 -19 -23 -43 -52 -54 -65 -11 -13
-36 -43 -56 -67 -21 -24 -44 -51 -52 -61 -8 -10 -28 -34 -45 -55 -16 -20 -35
-43 -42 -49 -10 -11 -93 -111 -133 -160 -8 -10 -20 -23 -25 -30 -11 -11 -147
-173 -225 -266 -25 -29 -51 -59 -58 -66 -6 -7 -12 -15 -12 -19 0 -3 -10 -16
-23 -28 -12 -12 -39 -43 -60 -69 -21 -26 -43 -53 -50 -60 -7 -7 -68 -80 -137
-163 -69 -82 -127 -152 -130 -155 -3 -3 -16 -18 -30 -33 l-25 -29 0 -609 c-1
-540 1 -609 15 -610 20 0 4298 0 4373 0 43 1 56 4 51 13 -5 7 -8 178 -8 380
-1 319 1 369 14 372 8 3 142 4 298 4 l282 -1 740 -739 c566 -565 740 -733 740
-716 2 430 0 8342 -3 8344 -2 2 -26 -24 -54 -59z m-1558 -4844 l0 -1848 -372
-1 c-205 -1 -374 2 -374 5 -1 3 -2 835 -3 1849 l-1 1842 375 0 375 0 0 -1847z
m-885 1194 l0 -583 -32 -35 c-18 -20 -42 -47 -53 -60 -11 -14 -56 -67 -100
-119 -44 -52 -83 -99 -88 -105 -4 -5 -17 -22 -30 -36 -12 -14 -41 -47 -64 -75
-23 -27 -50 -59 -60 -71 -10 -12 -29 -36 -43 -53 -14 -18 -32 -40 -41 -49 -8
-9 -39 -45 -69 -81 -29 -36 -56 -67 -59 -70 -3 -3 -24 -27 -45 -55 -22 -27
-48 -59 -58 -70 -10 -11 -26 -30 -36 -41 -9 -12 -35 -42 -56 -67 l-39 -46
-471 0 c-260 0 -477 4 -484 8 -9 6 -8 13 5 29 10 11 28 34 40 49 13 15 36 43
52 62 17 18 43 49 58 68 15 19 36 45 47 57 10 11 37 43 60 70 22 27 46 54 51
60 6 6 32 38 60 71 27 33 54 65 60 71 5 6 21 25 35 44 14 18 34 42 45 54 11
11 43 48 70 81 28 34 56 67 63 75 7 8 22 26 33 40 26 32 98 117 124 147 11 13
34 40 50 60 17 20 46 55 65 77 20 23 81 95 135 161 55 66 110 131 121 145 51
60 102 120 136 161 20 24 46 55 58 69 36 42 53 63 100 120 25 30 47 57 50 60
3 3 39 45 80 95 70 84 85 101 140 165 12 14 36 42 53 63 17 20 33 37 34 37 2
0 3 -262 3 -583z m-5 -2127 l0 -375 -942 0 -942 0 0 370 c1 203 2 372 4 375 2
3 426 6 942 5 l938 0 0 -375z"/>
<path d="M2164 8310 c0 -388 2 -440 16 -441 46 -3 547 -4 556 -1 9 2 12 122
13 443 l0 439 -292 0 -292 0 -1 -440z"/>
<path d="M2177 7570 c-10 -4 -13 -72 -13 -297 l1 -293 518 0 519 0 -30 -37
c-17 -21 -40 -48 -51 -60 -12 -12 -21 -27 -21 -33 0 -5 -4 -10 -8 -10 -5 0
-33 -30 -63 -67 -30 -38 -63 -78 -74 -89 -11 -12 -31 -36 -45 -54 -14 -17 -34
-42 -45 -54 -11 -12 -38 -44 -60 -70 -22 -27 -47 -56 -55 -66 -8 -10 -31 -37
-50 -61 -19 -24 -44 -53 -55 -64 -11 -12 -49 -57 -85 -101 -35 -43 -69 -84
-75 -90 -5 -6 -28 -33 -50 -59 -22 -27 -47 -56 -55 -65 -8 -9 -33 -38 -55 -65
-21 -28 -42 -52 -45 -55 -3 -3 -30 -34 -60 -70 l-55 -64 0 -458 -1 -458 36 39
c19 20 52 58 73 84 21 26 44 52 50 59 7 7 19 22 27 34 12 17 73 89 125 148 6
6 30 36 55 66 25 30 47 57 50 60 3 3 27 32 55 65 27 33 52 62 55 65 3 3 39 46
80 95 41 50 79 95 85 101 5 6 21 25 35 43 14 17 46 55 72 84 26 28 50 60 54
70 3 9 9 17 13 17 4 0 28 25 52 56 24 30 55 68 69 83 37 40 113 131 129 154 8
11 28 35 45 53 17 18 42 47 56 65 14 18 32 40 40 49 8 9 35 40 60 70 25 30 47
57 50 60 3 3 25 30 50 60 25 30 55 66 66 80 12 14 84 99 160 190 76 91 143
170 149 176 6 6 31 35 56 64 24 29 56 66 72 82 15 16 27 32 27 37 0 4 12 19
28 34 15 14 32 32 37 39 24 32 159 194 169 203 15 14 126 151 126 156 0 6
-2279 5 -2293 -1z"/>
<path d="M7060 3619 c0 -5 5 -7 10 -4 6 3 10 8 10 11 0 2 -4 4 -10 4 -5 0 -10
-5 -10 -11z"/>
<path d="M7190 3027 l0 -474 -555 0 c-305 0 -558 -3 -562 -7 -4 -4 -1 -11 6
-15 7 -5 581 -576 1274 -1269 l1262 -1260 1038 0 1038 1 -68 71 c-136 143
-3418 3426 -3425 3426 -5 0 -8 -213 -8 -473z"/>
<path d="M1748 2550 c-15 -3 -37 -18 -49 -35 -13 -16 -29 -34 -35 -40 -6 -5
-69 -80 -140 -165 -70 -85 -131 -157 -134 -160 -3 -3 -39 -45 -80 -95 -41 -49
-78 -91 -82 -93 -5 -2 -8 -8 -8 -12 0 -5 -10 -20 -22 -33 -13 -13 -43 -47 -68
-76 -25 -30 -50 -59 -55 -65 -11 -12 -95 -114 -110 -134 -5 -7 -17 -21 -26
-30 -9 -9 -40 -46 -70 -82 -29 -36 -58 -70 -64 -76 -5 -7 -24 -29 -41 -50 -18
-22 -44 -52 -58 -67 -14 -15 -26 -32 -26 -37 0 -4 -3 -10 -7 -12 -5 -2 -33
-32 -63 -68 -30 -36 -61 -72 -70 -81 -33 -36 -49 -58 -42 -62 6 -4 6625 -2
6629 2 4 3 -1473 1471 -1482 1472 -46 4 -3877 3 -3897 -1z"/>
<path d="M1640 802 c0 -4 -19 -8 -43 -9 -131 -8 -239 -80 -293 -198 -69 -150
-45 -362 53 -474 75 -86 140 -112 294 -116 106 -4 174 8 236 40 36 19 123 104
123 121 0 8 5 14 12 14 6 0 8 3 5 7 -4 3 -2 11 3 18 30 36 44 223 25 318 -12
59 -49 128 -91 170 -37 36 -142 94 -174 95 -31 1 -125 13 -137 17 -7 2 -13 1
-13 -3z m86 -191 c18 -2 74 -60 86 -89 29 -74 12 -248 -30 -295 -40 -46 -127
-60 -188 -31 -36 17 -78 66 -67 78 3 3 2 6 -3 6 -20 0 -24 174 -6 230 15 43
54 90 75 90 9 0 18 4 21 9 5 7 64 9 112 2z"/>
<path d="M6169 805 c-3 -2 -32 -7 -66 -10 -147 -14 -242 -95 -249 -211 -6
-102 70 -189 198 -228 66 -21 68 -21 108 -29 104 -21 155 -74 122 -130 -20
-33 -75 -52 -126 -43 -40 8 -99 63 -101 96 -1 11 -4 23 -8 26 -6 6 -64 9 -77
4 -3 -1 -36 -4 -75 -6 -38 -3 -71 -6 -72 -7 -2 -2 6 -36 20 -92 6 -20 30 -58
55 -87 55 -61 133 -85 285 -85 59 -1 110 3 113 8 3 5 9 7 14 4 5 -3 34 6 65
20 91 44 153 139 150 230 -6 136 -79 197 -302 255 -81 21 -124 37 -135 51 -24
28 -23 34 8 62 48 45 155 16 169 -45 6 -27 17 -32 60 -29 11 1 55 2 97 4 l78
2 -6 35 c-20 109 -107 182 -231 194 -22 2 -47 7 -54 11 -8 6 -10 4 -4 -4 6
-10 3 -11 -12 -2 -11 6 -22 8 -24 6z"/>
<path d="M673 780 c-111 -36 -170 -107 -175 -210 -2 -39 26 -103 60 -136 30
-29 85 -63 112 -68 3 -1 10 -5 17 -9 6 -4 23 -8 37 -9 14 -1 26 -5 26 -8 0 -3
11 -7 25 -8 35 -3 116 -30 138 -46 21 -16 36 -86 18 -86 -6 0 -11 -6 -11 -14
0 -19 -26 -29 -80 -31 -71 -4 -123 33 -135 96 -5 25 -22 39 -40 33 -11 -5 -94
-11 -167 -13 -33 -1 -34 -12 -12 -78 45 -133 122 -180 306 -189 160 -8 244 18
321 98 15 16 27 36 27 44 0 8 4 14 9 14 11 0 24 74 21 125 -4 71 -52 140 -124
177 -41 21 -172 61 -239 73 -41 8 -87 39 -87 60 0 7 8 23 19 36 14 18 28 22
70 22 58 0 96 -25 106 -72 5 -22 11 -27 33 -26 15 1 32 3 37 6 6 3 43 4 83 4
42 0 72 4 73 10 5 40 -27 112 -66 149 -55 53 -108 69 -235 71 -86 2 -128 -2
-167 -15z"/>
<path d="M99 766 c0 -30 -1 -640 0 -704 l1 -52 119 1 119 1 1 387 1 388 -120
1 c-116 0 -120 -1 -121 -22z"/>
<path d="M4237 781 c-2 -3 -3 -177 -2 -386 l0 -380 327 -2 326 -2 4 52 c1 29
2 69 0 90 l-3 37 -205 0 -204 0 -1 23 c0 12 -1 45 -2 72 l0 50 51 0 c28 1 54
4 58 8 4 4 13 2 20 -4 8 -6 14 -6 18 0 4 5 18 6 34 2 15 -4 38 -5 52 -1 14 4
36 4 49 0 14 -3 39 -4 57 -2 31 4 32 6 36 50 1 26 2 62 0 80 l-3 32 -185 0
c-168 0 -184 2 -185 18 -3 56 0 85 10 95 13 13 111 16 111 4 0 -5 6 -5 12 -1
17 11 108 11 108 0 0 -5 6 -4 13 1 13 10 89 9 105 -1 6 -3 13 -2 17 4 4 6 11
7 17 4 7 -5 9 0 6 13 -3 12 -2 27 3 34 4 7 5 18 1 23 -3 6 -6 29 -7 51 l0 40
-318 1 c-174 1 -319 -1 -320 -5z"/>
<path d="M5231 776 c-4 -6 -23 -51 -41 -101 -18 -49 -37 -101 -43 -115 -6 -14
-11 -27 -12 -30 0 -3 -11 -32 -24 -65 -13 -33 -24 -64 -25 -70 -4 -15 -25 -68
-37 -90 -5 -12 -11 -27 -13 -35 -2 -8 -8 -28 -15 -45 -13 -34 -12 -31 -52
-137 l-28 -77 122 2 122 2 19 62 20 62 137 0 136 0 19 -65 18 -64 128 1 128 1
-16 36 c-9 21 -20 48 -24 62 -9 28 -56 154 -69 185 -5 11 -18 47 -31 80 -12
33 -26 69 -30 80 -5 11 -35 90 -67 176 l-58 156 -128 0 c-78 0 -131 -5 -136
-11z m140 -213 c2 -20 9 -45 38 -141 18 -57 30 -106 28 -109 -6 -6 -148 -6
-154 0 -2 3 6 36 19 73 12 38 23 71 23 74 6 37 31 110 37 110 4 0 8 -3 9 -7z"/>
<path d="M6570 784 c0 -2 33 -51 73 -110 39 -58 77 -113 82 -122 6 -10 24 -37
40 -61 17 -24 35 -51 40 -59 15 -23 28 -41 45 -59 12 -13 16 -53 18 -189 l3
-172 109 -1 c59 -1 114 1 122 4 10 4 13 39 11 165 l-1 159 90 133 c49 73 110
165 136 203 26 39 52 76 59 83 7 7 13 17 13 22 0 5 -59 8 -132 7 l-132 -2 -32
-55 c-18 -30 -38 -60 -43 -67 -6 -7 -11 -15 -11 -18 0 -3 -16 -32 -36 -63 -37
-56 -37 -57 -48 -32 -6 14 -18 33 -26 43 -8 10 -15 21 -15 25 -1 4 -12 25 -26
47 -14 22 -36 58 -49 81 l-24 41 -133 0 c-73 0 -133 -1 -133 -3z"/>
<path d="M2276 413 c-3 -3 -5 -95 -6 -205 l0 -200 52 4 53 3 0 137 c0 129 6
163 19 93 2 -16 9 -45 15 -62 5 -18 7 -33 3 -33 -3 0 -1 -5 6 -12 7 -7 12 -20
12 -30 0 -10 6 -36 13 -59 12 -39 12 -40 57 -37 l45 3 17 65 c10 36 21 76 24
90 3 14 6 30 8 35 1 6 6 27 11 48 14 70 20 37 19 -102 l-2 -139 52 2 51 1 0
198 c0 226 9 208 -102 205 l-62 -2 -27 -111 c-30 -125 -53 -167 -45 -82 1 9
-2 17 -6 17 -5 0 -10 10 -11 23 -1 12 -10 51 -20 87 l-17 65 -77 2 c-42 1 -79
-1 -82 -4z"/>
<path d="M2904 396 c-3 -11 -35 -99 -70 -193 -35 -95 -64 -177 -64 -182 0 -5
27 -9 59 -10 59 -1 60 0 70 32 12 35 16 35 143 28 10 -1 19 -13 23 -30 6 -27
8 -28 71 -30 73 -2 72 -5 39 76 -7 17 -11 34 -7 37 3 3 0 6 -6 6 -7 0 -11 3
-10 7 0 5 -2 17 -6 28 -4 11 -19 52 -33 90 -13 39 -28 79 -33 90 -31 80 -22
73 -99 73 -63 0 -71 -3 -77 -22z m106 -161 l18 -53 -34 -4 c-44 -5 -57 10 -39
45 8 15 14 30 14 32 0 3 3 20 7 38 6 23 9 27 12 13 2 -10 12 -42 22 -71z"/>
<path d="M3244 216 l1 -201 115 1 c150 1 166 5 206 48 39 42 46 67 46 151 -1
74 -2 82 -29 127 -36 61 -70 72 -214 74 l-125 2 0 -202z m225 78 c20 -24 23
-35 19 -91 -4 -71 -18 -92 -63 -94 -54 -3 -53 -5 -54 110 l-1 109 37 -4 c26
-2 46 -12 62 -30z"/>
<path d="M3680 391 c0 -14 0 -34 0 -43 0 -26 0 -106 0 -120 0 -48 0 -156 0
-170 0 -49 -7 -48 172 -47 l168 1 0 47 0 47 -92 -1 c-121 -1 -124 -1 -123 38
l1 32 97 3 97 3 0 47 0 47 -94 -2 c-70 -2 -95 1 -99 11 -12 31 11 41 95 42
124 2 115 -2 114 47 l-2 42 -167 1 -167 1 0 -26z"/>
</g>
</svg>
