<?xml version="1.0" standalone="no"?>
<!DOCTYPE svg PUBLIC "-//W3C//DTD SVG 20010904//EN"
 "http://www.w3.org/TR/2001/REC-SVG-20010904/DTD/svg10.dtd">
<svg version="1.0" xmlns="http://www.w3.org/2000/svg"
 width="679.000000pt" height="679.000000pt" viewBox="0 0 679.000000 679.000000"
 preserveAspectRatio="xMidYMid meet">
<metadata>
Created by potrace 1.14, written by Peter Selinger 2001-2017
</metadata>
<g transform="translate(0.000000,679.000000) scale(0.100000,-0.100000)"
fill="#000000" stroke="none">
<path d="M2440 6030 l0 -640 270 0 270 0 0 640 0 640 -270 0 -270 0 0 -640z"/>
<path d="M1135 6469 c-496 -45 -917 -405 -1044 -893 -41 -157 -42 -221 -39
-1976 4 -1573 5 -1690 22 -1760 115 -485 446 -820 926 -936 70 -17 174 -19
1688 -21 886 -2 1612 -1 1612 1 0 2 -208 212 -462 465 l-463 461 -1067 0
c-733 0 -1083 3 -1118 11 -64 14 -125 60 -165 124 l-30 48 -3 1661 c-2 1243 0
1672 9 1704 16 57 82 129 144 158 l50 24 518 0 517 0 0 470 0 470 -502 -1
c-277 -1 -543 -5 -593 -10z"/>
<path d="M3190 6010 l0 -470 518 0 517 0 50 -24 c60 -28 127 -99 143 -154 9
-29 12 -356 12 -1273 l0 -1234 463 -463 464 -464 6 54 c12 95 8 3320 -4 3424
-35 320 -190 604 -438 804 -109 89 -308 190 -441 225 -146 38 -275 45 -802 45
l-488 0 0 -470z"/>
<path d="M1318 4865 l2 -406 121 3 121 3 2 403 1 402 -125 0 -125 0 3 -405z"/>
<path d="M1700 4870 l0 -400 491 0 c312 0 489 -4 487 -10 -1 -5 -152 -195
-335 -422 -183 -227 -487 -606 -677 -843 l-346 -429 0 -353 0 -353 1153 0
1152 0 263 263 262 262 0 128 0 127 -115 0 -115 0 0 -177 0 -176 -187 6 c-104
4 -225 7 -270 7 l-83 0 0 175 c0 96 -1 176 -2 176 -2 1 -188 4 -415 8 -226 3
-414 8 -416 11 -2 3 -2 96 1 206 l5 202 59 68 c33 38 79 92 102 120 69 86 439
528 455 545 9 8 49 57 90 107 41 51 79 92 85 92 6 1 104 0 217 0 l206 -1 137
167 136 167 0 363 0 364 -1170 0 -1170 0 0 -400z"/>
<path d="M1333 4168 l2 -123 223 -5 223 -5 -226 -267 -225 -267 0 -191 0 -191
168 199 c92 109 306 365 476 568 170 203 316 377 324 387 14 16 -9 17 -476 17
l-491 0 2 -122z"/>
<path d="M4090 2145 l-335 -335 445 -447 c245 -247 615 -619 823 -828 l378
-380 674 3 c371 1 675 5 675 7 0 9 -2314 2315 -2323 2315 -1 0 -153 -151 -337
-335z"/>
<path d="M465 631 c-75 -18 -111 -70 -102 -147 7 -63 34 -87 128 -108 79 -18
99 -29 99 -57 0 -48 -104 -65 -175 -29 -21 11 -39 19 -41 17 -1 -1 -9 -16 -17
-33 -19 -38 -13 -46 53 -69 54 -19 140 -19 185 -1 74 31 100 138 48 196 -21
23 -45 34 -98 47 -75 17 -105 36 -105 63 0 45 76 62 144 31 l47 -20 16 35 c20
41 17 45 -61 69 -53 16 -74 17 -121 6z"/>
<path d="M846 630 c-38 -12 -75 -47 -92 -87 -22 -51 -19 -229 5 -273 31 -58
63 -75 141 -75 78 0 110 17 142 75 16 30 19 52 16 152 -3 125 -11 147 -69 190
-29 21 -103 31 -143 18z m108 -99 c24 -26 33 -152 14 -206 -24 -71 -106 -76
-135 -7 -21 51 -14 183 12 212 24 27 85 27 109 1z"/>
<path d="M4011 630 c-18 -4 -48 -22 -65 -39 -28 -28 -31 -37 -31 -92 0 -54 3
-63 27 -84 15 -13 52 -28 85 -35 76 -15 107 -31 111 -57 7 -51 -99 -71 -173
-33 -21 11 -39 19 -41 17 -1 -1 -9 -16 -17 -33 -14 -26 -14 -34 -3 -43 25 -21
99 -41 153 -41 105 0 163 46 163 131 0 70 -33 103 -129 128 -89 23 -109 40
-93 75 19 42 119 44 169 4 9 -7 17 0 30 27 20 43 17 46 -61 70 -54 16 -73 17
-125 5z"/>
<path d="M190 410 l0 -220 40 0 40 0 0 220 0 220 -40 0 -40 0 0 -220z"/>
<path d="M3142 413 l3 -218 148 -3 147 -3 0 41 0 40 -105 0 -105 0 0 50 0 50
90 0 90 0 0 40 0 40 -90 0 -90 0 0 50 0 50 105 0 105 0 0 40 0 40 -150 0 -150
0 2 -217z"/>
<path d="M3629 603 c-5 -16 -41 -110 -80 -210 -38 -101 -69 -188 -69 -193 0
-7 17 -10 42 -8 38 3 43 6 52 36 l9 32 83 0 83 0 12 -35 c12 -33 16 -35 57
-35 31 0 43 4 40 13 -3 6 -40 105 -84 220 -76 201 -80 207 -107 207 -21 0 -30
-7 -38 -27z m70 -196 c11 -32 21 -60 21 -62 0 -3 -22 -5 -50 -5 -27 0 -50 4
-50 8 0 23 43 132 50 125 4 -4 17 -34 29 -66z"/>
<path d="M4240 626 c0 -2 26 -57 58 -122 54 -114 57 -123 62 -214 l5 -95 43
-3 42 -3 0 89 c0 89 0 91 60 213 33 68 60 128 60 132 0 5 -19 7 -41 5 l-41 -3
-38 -83 c-20 -45 -39 -84 -42 -87 -3 -3 -23 35 -44 85 l-39 90 -42 0 c-24 0
-43 -2 -43 -4z"/>
</g>
</svg>
